# Blender v3.2.2 OBJ File: 'Text (Blender- normals, texture).obj'
# www.blender.org
o Cube (normals, texture)
v 1.000000 1.000000 -1.000000
v 1.000000 -1.000000 -1.000000
v 1.000000 1.000000 1.000000
v 1.000000 -1.000000 1.000000
v -1.000000 1.000000 -1.000000
v -1.000000 -1.000000 -1.000000
v -1.000000 1.000000 1.000000
v -1.000000 -1.000000 1.000000
vt 0.875000 0.500000
vt 0.625000 0.750000
vt 0.625000 0.500000
vt 0.375000 1.000000
vt 0.375000 0.750000
vt 0.625000 0.000000
vt 0.375000 0.250000
vt 0.375000 0.000000
vt 0.375000 0.500000
vt 0.125000 0.750000
vt 0.125000 0.500000
vt 0.625000 0.250000
vt 0.875000 0.750000
vt 0.625000 1.000000
vn 0.0000 1.0000 0.0000
vn 0.0000 0.0000 1.0000
vn -1.0000 0.0000 0.0000
vn 0.0000 -1.0000 0.0000
vn 1.0000 0.0000 0.0000
vn 0.0000 0.0000 -1.0000
s off
# *** The number of unique face element triplets is the number of unique sets of vertex attributes ***
# 0-2
f 5/1/1 3/2/1 1/3/1
# 3-5
f 3/2/2 8/4/2 4/5/2
# 6-8
f 7/6/3 6/7/3 8/8/3
# 9-11
f 2/9/4 8/10/4 6/11/4
# 12-14
f 1/3/5 4/5/5 2/9/5
# 15-17
f 5/12/6 2/9/6 6/7/6
# 18-20
f 5/1/1 7/13/1 3/2/1
# 21-23
f 3/2/2 7/14/2 8/4/2
# 24-26
f 7/6/3 5/12/3 6/7/3
# 27-29
f 2/9/4 4/5/4 8/10/4
# 30-32
f 1/3/5 3/2/5 4/5/5
# 33-35
f 5/12/6 1/3/6 2/9/6
